# xmcd
#
# Track frame offsets: 
#        182
#        36437
#        61147
#        100370
#        121355
#        152472
#        183452
#
# Disc length: 2691 seconds
#
# Revision: 0
# Processed by: cddbd v1.5.2PL0 Copyright (c) Steve Scherf et al.
# Submitted via: ExactAudioCopy v1.0b3
#
DISCID=570a8107
DTITLE=Chris Michell - Dolphin Love
DYEAR=1900
DGENRE=
TTITLE0=Dolphin Love
TTITLE1=Whale Song
TTITLE2=Sea of Love
TTITLE3=Tranquilit
TTITLE4=Air
TTITLE5=Ave Maria
TTITLE6=Sea and Dolphins
EXTD=
EXTT0=
EXTT1=
EXTT2=
EXTT3=
EXTT4=
EXTT5=
EXTT6=
PLAYORDER=
